<svg width="20" height="18" viewBox="0 0 20 18" fill="none" xmlns="http://www.w3.org/2000/svg">
<path d="M14.6512 18H5.34884C1.95349 18 0 15.9568 0 12.4054V5.59459C0 2.04324 1.95349 0 5.34884 0H14.6512C18.0465 0 20 2.04324 20 5.59459V12.4054C20 15.9568 18.0465 18 14.6512 18ZM5.34884 1.45946C2.68837 1.45946 1.39535 2.81189 1.39535 5.59459V12.4054C1.39535 15.1881 2.68837 16.5405 5.34884 16.5405H14.6512C17.3116 16.5405 18.6047 15.1881 18.6047 12.4054V5.59459C18.6047 2.81189 17.3116 1.45946 14.6512 1.45946H5.34884Z" fill="#F47521"/>
<rect x="12" y="1" width="2" height="16" fill="#F47521"/>
</svg>
