<svg width="38" height="34" viewBox="0 0 38 34" fill="none" xmlns="http://www.w3.org/2000/svg">
<path d="M4.83382 28.5372L33.069 28.5904C35.2355 28.5904 37.0113 27.01 37.0113 25.0566L37.0468 8.48842C37.0468 6.53504 35.2888 4.93682 33.1223 4.93682L4.8871 4.88354C2.72062 4.88354 0.944827 6.464 0.944827 8.41738L0.909312 24.9856C0.891554 26.9212 2.66735 28.5194 4.83382 28.5372Z" fill="#7E2B1C"/>
<path d="M33.0688 29.2119L4.83361 29.1586C3.62607 29.1586 2.48956 28.7325 1.63717 27.9511C0.767033 27.152 0.269811 26.1043 0.287569 24.9678L0.323085 8.39957C0.323085 6.09103 2.38301 4.22644 4.88688 4.22644C4.88688 4.22644 4.88689 4.22644 4.90464 4.22644L33.1398 4.27971C34.3474 4.27971 35.4839 4.7059 36.3363 5.48726C37.2064 6.28636 37.7036 7.33409 37.6859 8.4706L37.6504 25.0388C37.6326 27.3473 35.5727 29.2119 33.0688 29.2119ZM4.86913 5.48726C3.04005 5.48726 1.56614 6.80135 1.56614 8.39957L1.53063 24.9678C1.53063 25.7314 1.86803 26.4594 2.4718 27.0099C3.09333 27.5782 3.94571 27.8978 4.83361 27.8978L33.0688 27.9511C34.8979 27.9511 36.3718 26.637 36.3718 25.0388L36.4073 8.4706C36.4073 7.707 36.0699 6.97893 35.4661 6.42843C34.8446 5.86017 33.9922 5.54053 33.1043 5.54053L4.86913 5.48726Z" fill="#7E2B1C"/>
<path d="M3.53731 0.621155L11.191 0.638912C12.6116 0.638912 13.7659 1.81094 13.7659 3.21382V6.87196L33.1399 6.90748C35.3063 6.90748 37.0821 8.68328 37.0644 10.8498L37.0289 29.2293C37.0289 31.3957 35.2531 33.1715 33.0866 33.1538L4.8514 33.1005C2.68493 33.1005 0.909132 31.3247 0.92689 29.1582L0.962405 11.1516V10.7787L0.980164 3.1783C0.962406 1.77542 2.11667 0.621155 3.53731 0.621155Z" fill="#EF6D22"/>
<path d="M33.0683 33.8112L4.83315 33.7579C3.62561 33.7579 2.47134 33.2785 1.61896 32.4083C0.748817 31.5382 0.287109 30.4017 0.287109 29.1764L0.340381 3.19644C0.340381 2.34405 0.677783 1.54494 1.28155 0.941173C1.88533 0.337402 2.68443 0 3.53682 0L11.1905 0.0177577C12.9663 0.0177577 14.3869 1.45615 14.3869 3.23195V6.26857L33.1216 6.30408C34.3292 6.30408 35.4834 6.78355 36.3358 7.65369C37.2059 8.52383 37.6677 9.66034 37.6677 10.8856L37.6321 29.2651C37.6321 30.4727 37.1527 31.627 36.2825 32.4793C35.4301 33.3317 34.2759 33.8112 33.0683 33.8112ZM3.53682 1.26082C3.02184 1.26082 2.52461 1.45615 2.16945 1.82907C1.79654 2.20199 1.6012 2.68145 1.6012 3.19644L1.54792 29.1764C1.54792 30.0643 1.88533 30.8811 2.52461 31.5204C3.14614 32.1419 3.98077 32.4971 4.86867 32.4971L33.1039 32.5504C33.974 32.5504 34.8086 32.213 35.4301 31.5737C36.0517 30.9522 36.4068 30.1175 36.4068 29.2296L36.4424 10.8501C36.4424 9.96223 36.1049 9.14536 35.4657 8.50607C34.8441 7.88454 34.0095 7.52938 33.1216 7.52938L13.7477 7.49387C13.5878 7.49387 13.428 7.42283 13.3037 7.31629C13.1794 7.19198 13.1261 7.03216 13.1261 6.87234V3.2142C13.1261 2.13096 12.256 1.26082 11.1727 1.26082H3.53682Z" fill="#EF6D22"/>
<path d="M21.0121 18.5217C20.8523 18.5217 20.6924 18.4684 20.5681 18.3441L18.5437 16.3552L16.5548 18.3441C16.3062 18.5927 15.9155 18.5927 15.6669 18.3441C15.4183 18.0955 15.4183 17.7048 15.6669 17.4562L18.0998 15.0234C18.3484 14.7748 18.7391 14.7748 18.9877 15.0234L21.456 17.4562C21.7046 17.7048 21.7046 18.0955 21.456 18.3441C21.3317 18.4684 21.1719 18.5217 21.0121 18.5217Z" fill="#FFF6EB"/>
<path d="M18.561 22.3574C18.2058 22.3574 17.9395 22.0733 17.9395 21.7359V15.4673C17.9395 15.1121 18.2236 14.8458 18.561 14.8458C18.9161 14.8458 19.1825 15.1299 19.1825 15.4673V21.7359C19.1825 22.0733 18.8984 22.3574 18.561 22.3574Z" fill="#FFF6EB"/>
<path d="M23.1777 25.341H13.9968C13.2155 25.341 12.5762 24.7017 12.5762 23.9381V20.6707C12.5762 20.3155 12.8603 20.0491 13.1977 20.0491C13.5529 20.0491 13.8192 20.3333 13.8192 20.6707V23.9381C13.8192 24.0269 13.8903 24.098 13.9791 24.098H23.1599C23.2132 24.098 23.2487 24.0624 23.2487 24.0092V20.6707C23.2487 20.3155 23.5328 20.0491 23.8702 20.0491C24.2254 20.0491 24.4918 20.3333 24.4918 20.6707V24.0092C24.5273 24.7372 23.9235 25.341 23.1777 25.341Z" fill="#FFF6EB"/>
</svg>
