<svg width="15" height="16" viewBox="0 0 15 16" fill="none" xmlns="http://www.w3.org/2000/svg">
<path d="M11.5422 5.19453L11.8641 4.87266C12.3974 4.33936 13.2621 4.33936 13.7953 4.87266C14.3287 5.40596 14.3287 6.27061 13.7953 6.80388L13.4735 7.1258M11.5422 5.19453C11.5422 5.19453 11.5825 5.87851 12.186 6.48203C12.7895 7.08551 13.4735 7.1258 13.4735 7.1258M11.5422 5.19453L8.5831 8.15363C8.38265 8.35408 8.28243 8.4543 8.19624 8.5648C8.09463 8.69516 8.00747 8.83622 7.93635 8.98541C7.87606 9.11195 7.8312 9.24634 7.7416 9.51526L7.45462 10.3762L7.36176 10.6547M13.4735 7.1258L10.5144 10.0849C10.3139 10.2854 10.2137 10.3856 10.1032 10.4718C9.97285 10.5734 9.83179 10.6605 9.68261 10.7317C9.55606 10.792 9.42167 10.8368 9.15275 10.9264L8.29181 11.2134L8.0133 11.3063M7.36176 10.6547L7.2689 10.9333C7.2248 11.0656 7.25925 11.2115 7.35787 11.3101C7.4565 11.4088 7.60242 11.4432 7.73472 11.3991L8.0133 11.3063M7.36176 10.6547L8.0133 11.3063" stroke="#E4E4E4" stroke-width="1.2"/>
<path d="M4.47266 8.63986H6.20899" stroke="#E4E4E4" stroke-width="1.2" stroke-linecap="round"/>
<path d="M4.47266 5.86172H8.98711" stroke="#E4E4E4" stroke-width="1.2" stroke-linecap="round"/>
<path d="M4.47266 11.418H5.51445" stroke="#E4E4E4" stroke-width="1.2" stroke-linecap="round"/>
<path d="M12.6879 1.81369C11.8742 1 10.5645 1 7.94532 1H6.55626C3.93701 1 2.62739 1 1.81369 1.81369C1 2.62739 1 3.93701 1 6.55625V9.33438C1 11.9536 1 13.2633 1.81369 14.0769C2.62739 14.8906 3.93701 14.8906 6.55626 14.8906H7.94532C10.5645 14.8906 11.8742 14.8906 12.6879 14.0769C13.3429 13.4219 13.4706 12.4456 13.4955 10.7234" stroke="#E4E4E4" stroke-width="1.2" stroke-linecap="round"/>
</svg>
