<svg width="15" height="15" viewBox="0 0 15 15" fill="none" xmlns="http://www.w3.org/2000/svg">
<path d="M5.16719 11.8265C5.16719 12.9773 4.23433 13.9101 3.0836 13.9101C1.93286 13.9101 1 12.9773 1 11.8265C1 10.6758 1.93286 9.74294 3.0836 9.74294C4.23433 9.74294 5.16719 10.6758 5.16719 11.8265Z" stroke="#E4E4E4" stroke-width="1.2"/>
<path d="M13.5012 10.4375C13.5012 11.5882 12.5684 12.5211 11.4176 12.5211C10.2668 12.5211 9.33398 11.5882 9.33398 10.4375C9.33398 9.28669 10.2668 8.35387 11.4176 8.35387C12.5684 8.35387 13.5012 9.28669 13.5012 10.4375Z" stroke="#E4E4E4" stroke-width="1.2"/>
<path d="M5.16602 11.8265V4.18669" stroke="#E4E4E4" stroke-width="1.2"/>
<path d="M13.5 10.4375V2.79761" stroke="#E4E4E4" stroke-width="1.2"/>
<path d="M9.84376 1.23816L7.06563 2.1642C6.14885 2.46981 5.69041 2.62261 5.42822 2.98639C5.16602 3.35016 5.16602 3.83336 5.16602 4.79977V6.96461L13.5004 4.18647V3.87372C13.5004 2.11485 13.5004 1.23541 12.9235 0.819637C12.3466 0.403856 11.5124 0.68196 9.84376 1.23816Z" stroke="#E4E4E4" stroke-width="1.2" stroke-linecap="round"/>
</svg>
