<svg width="17" height="17" viewBox="0 0 17 17" fill="none" xmlns="http://www.w3.org/2000/svg">
<path d="M6.4502 0.950195C8.59654 0.950195 10.3456 2.69841 10.3457 4.84473C10.3382 6.9531 8.68695 8.66487 6.59277 8.73242H6.5V8.73145C6.46999 8.72544 6.42431 8.72489 6.38477 8.73145L6.375 8.7334V8.73242C4.19986 8.66492 2.55566 6.95382 2.55566 4.84473C2.5558 2.6985 4.30397 0.950335 6.4502 0.950195ZM6.4502 2.16113C4.9741 2.16127 3.76674 3.36863 3.7666 4.84473C3.7666 6.29819 4.89914 7.46769 6.34473 7.52051C6.39643 7.51318 6.49144 7.51369 6.58301 7.52051C8.00748 7.4543 9.12652 6.28471 9.13379 4.84473C9.13365 3.36854 7.92641 2.16113 6.4502 2.16113Z" fill="#E4E4E4" stroke="#859492" stroke-width="0.1"/>
<path d="M11.9404 2.43188C13.7015 2.43197 15.1386 3.86906 15.1387 5.63013C15.1387 7.36104 13.7838 8.76064 12.0605 8.82837L12.0586 8.82935H12.0361C12.0194 8.82935 11.9977 8.82565 11.9736 8.82056L11.9746 8.82153C11.6486 8.85325 11.3082 8.6234 11.2754 8.28735C11.2436 7.96135 11.4435 7.65945 11.7783 7.61841L11.7803 7.61743C11.8706 7.6099 11.9682 7.6106 12.0488 7.6106L12.2432 7.59009C13.2032 7.44351 13.9275 6.61934 13.9277 5.62329C13.9277 4.52488 13.0388 3.63608 11.9404 3.63599V3.63501C11.6084 3.64252 11.335 3.36811 11.335 3.03735C11.335 2.70599 11.6091 2.43188 11.9404 2.43188Z" fill="#E4E4E4" stroke="#859492" stroke-width="0.1"/>
<path d="M6.58203 9.2384C8.04357 9.2384 9.50635 9.6089 10.6201 10.3527C11.6526 11.041 12.2352 11.9882 12.2354 13.0236C12.2354 13.9943 11.7301 14.895 10.8096 15.5773L10.6201 15.7101C9.49907 16.4574 8.03686 16.8302 6.57715 16.8302C5.11757 16.8302 3.64796 16.4575 2.53418 15.7101C1.49395 15.0216 0.919112 14.0744 0.918945 13.0392C0.918945 12.0039 1.49387 11.0487 2.53418 10.3527L2.74805 10.2169C3.83808 9.56357 5.21201 9.23848 6.58203 9.2384ZM6.57715 10.4552C5.34539 10.4552 4.11633 10.7611 3.2041 11.3693C2.50188 11.8375 2.12993 12.431 2.12988 13.046C2.12988 13.5774 2.41991 14.0986 2.95801 14.5294L3.2041 14.7081C4.11632 15.3199 5.34544 15.6281 6.57715 15.6281C7.80877 15.628 9.03706 15.3199 9.94922 14.7081C10.6516 14.2399 11.0234 13.6464 11.0234 13.0314C11.0234 12.4241 10.6452 11.8303 9.9502 11.3693H9.94922C9.03706 10.7612 7.80875 10.4552 6.57715 10.4552Z" fill="#E4E4E4" stroke="#859492" stroke-width="0.1"/>
<path d="M13.5361 9.84918C14.1793 9.99127 14.7419 10.2452 15.2002 10.5982C15.8999 11.1249 16.3017 11.8725 16.3018 12.6607C16.3018 13.4493 15.8926 14.1972 15.1934 14.731L15.1924 14.73C14.7265 15.0906 14.142 15.3537 13.498 15.481L13.4971 15.48C13.4472 15.4954 13.4055 15.4966 13.3701 15.4966C13.0878 15.4966 12.8369 15.3023 12.7803 15.0113C12.7159 14.6808 12.9256 14.3661 13.248 14.2935H13.249C13.7095 14.1984 14.1318 14.016 14.458 13.7623L14.6045 13.6412C14.9231 13.3528 15.0908 13.0128 15.0908 12.6607C15.0908 12.3084 14.923 11.9684 14.6094 11.6851L14.4658 11.567C14.1468 11.3205 13.7458 11.1456 13.2695 11.0357C12.9467 10.9629 12.7371 10.6397 12.8096 10.3091C12.8823 9.9861 13.2054 9.77658 13.5361 9.84918Z" fill="#E4E4E4" stroke="#859492" stroke-width="0.1"/>
</svg>
