<svg width="16" height="15" viewBox="0 0 16 15" fill="none" xmlns="http://www.w3.org/2000/svg">
<path d="M8.04149 9.76515C6.60517 9.76515 5.43945 8.59943 5.43945 7.16311C5.43945 5.72678 6.60517 4.56107 8.04149 4.56107C9.47782 4.56107 10.6435 5.72678 10.6435 7.16311C10.6435 8.59943 9.47782 9.76515 8.04149 9.76515ZM8.04149 5.60188C7.18109 5.60188 6.48027 6.3027 6.48027 7.16311C6.48027 8.02351 7.18109 8.72433 8.04149 8.72433C8.9019 8.72433 9.60272 8.02351 9.60272 7.16311C9.60272 6.3027 8.9019 5.60188 8.04149 5.60188Z" fill="#E4E4E4"/>
<path d="M10.2686 14.2336C10.1228 14.2336 9.97713 14.2127 9.83142 14.1781C9.40122 14.0601 9.0404 13.7895 8.81142 13.4078L8.72815 13.2691C8.31877 12.5613 7.75673 12.5613 7.34734 13.2691L7.27101 13.4009C7.04203 13.7895 6.68122 14.067 6.25101 14.1781C5.81387 14.296 5.36285 14.2336 4.98122 14.0046L3.78775 13.3176C3.36448 13.0748 3.05917 12.6793 2.92734 12.2005C2.80244 11.7217 2.86489 11.2291 3.10775 10.8058C3.30897 10.4519 3.36448 10.1327 3.24652 9.93152C3.12856 9.7303 2.83019 9.61234 2.42081 9.61234C1.40775 9.61234 0.582031 8.78662 0.582031 7.77356V6.55234C0.582031 5.53927 1.40775 4.71356 2.42081 4.71356C2.83019 4.71356 3.12856 4.5956 3.24652 4.39438C3.36448 4.19315 3.31591 3.87397 3.10775 3.52009C2.86489 3.09683 2.80244 2.59723 2.92734 2.1254C3.05224 1.64662 3.35754 1.25111 3.78775 1.00825L4.98815 0.321316C5.77224 -0.143582 6.80611 0.12703 7.27795 0.924989L7.36122 1.06376C7.7706 1.77152 8.33264 1.77152 8.74203 1.06376L8.81836 0.931928C9.29019 0.12703 10.3241 -0.143582 11.1151 0.328255L12.3086 1.01519C12.7318 1.25805 13.0371 1.65356 13.169 2.13234C13.2939 2.61111 13.2314 3.10377 12.9886 3.52703C12.7873 3.88091 12.7318 4.20009 12.8498 4.40132C12.9677 4.60254 13.2661 4.7205 13.6755 4.7205C14.6886 4.7205 15.5143 5.54621 15.5143 6.55928V7.7805C15.5143 8.79356 14.6886 9.61928 13.6755 9.61928C13.2661 9.61928 12.9677 9.73723 12.8498 9.93846C12.7318 10.1397 12.7804 10.4589 12.9886 10.8127C13.2314 11.236 13.3008 11.7356 13.169 12.2074C13.0441 12.6862 12.7388 13.0817 12.3086 13.3246L11.1082 14.0115C10.8445 14.1572 10.56 14.2336 10.2686 14.2336ZM8.04122 11.6662C8.65877 11.6662 9.23468 12.0548 9.63019 12.7417L9.70652 12.8736C9.78979 13.0193 9.92856 13.1234 10.0951 13.165C10.2616 13.2066 10.4282 13.1858 10.5669 13.1025L11.7673 12.4087C11.9477 12.3046 12.0865 12.1311 12.142 11.9229C12.1975 11.7148 12.1698 11.4997 12.0657 11.3193C11.6702 10.6393 11.6216 9.93846 11.9269 9.40417C12.2322 8.86989 12.8637 8.56458 13.6547 8.56458C14.0988 8.56458 14.4526 8.2107 14.4526 7.76662V6.5454C14.4526 6.10825 14.0988 5.74744 13.6547 5.74744C12.8637 5.74744 12.2322 5.44213 11.9269 4.90785C11.6216 4.37356 11.6702 3.67274 12.0657 2.99274C12.1698 2.81234 12.1975 2.59723 12.142 2.38907C12.0865 2.18091 11.9547 2.01438 11.7743 1.90336L10.5739 1.21642C10.2755 1.03601 9.87999 1.14009 9.69958 1.4454L9.62326 1.57723C9.22775 2.26417 8.65183 2.65274 8.03428 2.65274C7.41673 2.65274 6.84081 2.26417 6.4453 1.57723L6.36897 1.43846C6.1955 1.14703 5.80693 1.04295 5.50856 1.21642L4.30815 1.9103C4.12775 2.01438 3.98897 2.18785 3.93346 2.39601C3.87795 2.60417 3.9057 2.81928 4.00979 2.99968C4.4053 3.67968 4.45387 4.3805 4.14856 4.91479C3.84326 5.44907 3.21183 5.75438 2.42081 5.75438C1.97673 5.75438 1.62285 6.10825 1.62285 6.55234V7.77356C1.62285 8.2107 1.97673 8.57152 2.42081 8.57152C3.21183 8.57152 3.84326 8.87683 4.14856 9.41111C4.45387 9.9454 4.4053 10.6462 4.00979 11.3262C3.9057 11.5066 3.87795 11.7217 3.93346 11.9299C3.98897 12.1381 4.12081 12.3046 4.30122 12.4156L5.50162 13.1025C5.64734 13.1927 5.82081 13.2136 5.9804 13.1719C6.14693 13.1303 6.28571 13.0193 6.37591 12.8736L6.45224 12.7417C6.84775 12.0617 7.42366 11.6662 8.04122 11.6662Z" fill="#E4E4E4"/>
</svg>
